%TF.GenerationSoftware,KiCad,Pcbnew,5.1.10*%
%TF.CreationDate,2021-05-14T23:01:05+02:00*%
%TF.ProjectId,kenwood-trrs,6b656e77-6f6f-4642-9d74-7272732e6b69,rev?*%
%TF.SameCoordinates,Original*%
%TF.FileFunction,Paste,Top*%
%TF.FilePolarity,Positive*%
%FSLAX46Y46*%
G04 Gerber Fmt 4.6, Leading zero omitted, Abs format (unit mm)*
G04 Created by KiCad (PCBNEW 5.1.10) date 2021-05-14 23:01:05*
%MOMM*%
%LPD*%
G01*
G04 APERTURE LIST*
%ADD10R,0.800000X1.900000*%
G04 APERTURE END LIST*
D10*
%TO.C,Q1*%
X152300000Y-80650000D03*
X153250000Y-83650000D03*
X151350000Y-83650000D03*
%TD*%
%TO.C,R5*%
G36*
G01*
X158050001Y-82308000D02*
X157149999Y-82308000D01*
G75*
G02*
X156900000Y-82058001I0J249999D01*
G01*
X156900000Y-81357999D01*
G75*
G02*
X157149999Y-81108000I249999J0D01*
G01*
X158050001Y-81108000D01*
G75*
G02*
X158300000Y-81357999I0J-249999D01*
G01*
X158300000Y-82058001D01*
G75*
G02*
X158050001Y-82308000I-249999J0D01*
G01*
G37*
G36*
G01*
X158050001Y-84308000D02*
X157149999Y-84308000D01*
G75*
G02*
X156900000Y-84058001I0J249999D01*
G01*
X156900000Y-83357999D01*
G75*
G02*
X157149999Y-83108000I249999J0D01*
G01*
X158050001Y-83108000D01*
G75*
G02*
X158300000Y-83357999I0J-249999D01*
G01*
X158300000Y-84058001D01*
G75*
G02*
X158050001Y-84308000I-249999J0D01*
G01*
G37*
%TD*%
%TO.C,R4*%
G36*
G01*
X155750001Y-82308000D02*
X154849999Y-82308000D01*
G75*
G02*
X154600000Y-82058001I0J249999D01*
G01*
X154600000Y-81357999D01*
G75*
G02*
X154849999Y-81108000I249999J0D01*
G01*
X155750001Y-81108000D01*
G75*
G02*
X156000000Y-81357999I0J-249999D01*
G01*
X156000000Y-82058001D01*
G75*
G02*
X155750001Y-82308000I-249999J0D01*
G01*
G37*
G36*
G01*
X155750001Y-84308000D02*
X154849999Y-84308000D01*
G75*
G02*
X154600000Y-84058001I0J249999D01*
G01*
X154600000Y-83357999D01*
G75*
G02*
X154849999Y-83108000I249999J0D01*
G01*
X155750001Y-83108000D01*
G75*
G02*
X156000000Y-83357999I0J-249999D01*
G01*
X156000000Y-84058001D01*
G75*
G02*
X155750001Y-84308000I-249999J0D01*
G01*
G37*
%TD*%
%TO.C,R1*%
G36*
G01*
X149450000Y-79549999D02*
X149450000Y-80450001D01*
G75*
G02*
X149200001Y-80700000I-249999J0D01*
G01*
X148499999Y-80700000D01*
G75*
G02*
X148250000Y-80450001I0J249999D01*
G01*
X148250000Y-79549999D01*
G75*
G02*
X148499999Y-79300000I249999J0D01*
G01*
X149200001Y-79300000D01*
G75*
G02*
X149450000Y-79549999I0J-249999D01*
G01*
G37*
G36*
G01*
X151450000Y-79549999D02*
X151450000Y-80450001D01*
G75*
G02*
X151200001Y-80700000I-249999J0D01*
G01*
X150499999Y-80700000D01*
G75*
G02*
X150250000Y-80450001I0J249999D01*
G01*
X150250000Y-79549999D01*
G75*
G02*
X150499999Y-79300000I249999J0D01*
G01*
X151200001Y-79300000D01*
G75*
G02*
X151450000Y-79549999I0J-249999D01*
G01*
G37*
%TD*%
%TO.C,C2*%
G36*
G01*
X148623000Y-89670000D02*
X149573000Y-89670000D01*
G75*
G02*
X149823000Y-89920000I0J-250000D01*
G01*
X149823000Y-90420000D01*
G75*
G02*
X149573000Y-90670000I-250000J0D01*
G01*
X148623000Y-90670000D01*
G75*
G02*
X148373000Y-90420000I0J250000D01*
G01*
X148373000Y-89920000D01*
G75*
G02*
X148623000Y-89670000I250000J0D01*
G01*
G37*
G36*
G01*
X148623000Y-87770000D02*
X149573000Y-87770000D01*
G75*
G02*
X149823000Y-88020000I0J-250000D01*
G01*
X149823000Y-88520000D01*
G75*
G02*
X149573000Y-88770000I-250000J0D01*
G01*
X148623000Y-88770000D01*
G75*
G02*
X148373000Y-88520000I0J250000D01*
G01*
X148373000Y-88020000D01*
G75*
G02*
X148623000Y-87770000I250000J0D01*
G01*
G37*
%TD*%
%TO.C,R3*%
G36*
G01*
X156575000Y-78349999D02*
X156575000Y-79250001D01*
G75*
G02*
X156325001Y-79500000I-249999J0D01*
G01*
X155674999Y-79500000D01*
G75*
G02*
X155425000Y-79250001I0J249999D01*
G01*
X155425000Y-78349999D01*
G75*
G02*
X155674999Y-78100000I249999J0D01*
G01*
X156325001Y-78100000D01*
G75*
G02*
X156575000Y-78349999I0J-249999D01*
G01*
G37*
G36*
G01*
X158625000Y-78349999D02*
X158625000Y-79250001D01*
G75*
G02*
X158375001Y-79500000I-249999J0D01*
G01*
X157724999Y-79500000D01*
G75*
G02*
X157475000Y-79250001I0J249999D01*
G01*
X157475000Y-78349999D01*
G75*
G02*
X157724999Y-78100000I249999J0D01*
G01*
X158375001Y-78100000D01*
G75*
G02*
X158625000Y-78349999I0J-249999D01*
G01*
G37*
%TD*%
%TO.C,R2*%
G36*
G01*
X156575000Y-74349999D02*
X156575000Y-75250001D01*
G75*
G02*
X156325001Y-75500000I-249999J0D01*
G01*
X155674999Y-75500000D01*
G75*
G02*
X155425000Y-75250001I0J249999D01*
G01*
X155425000Y-74349999D01*
G75*
G02*
X155674999Y-74100000I249999J0D01*
G01*
X156325001Y-74100000D01*
G75*
G02*
X156575000Y-74349999I0J-249999D01*
G01*
G37*
G36*
G01*
X158625000Y-74349999D02*
X158625000Y-75250001D01*
G75*
G02*
X158375001Y-75500000I-249999J0D01*
G01*
X157724999Y-75500000D01*
G75*
G02*
X157475000Y-75250001I0J249999D01*
G01*
X157475000Y-74349999D01*
G75*
G02*
X157724999Y-74100000I249999J0D01*
G01*
X158375001Y-74100000D01*
G75*
G02*
X158625000Y-74349999I0J-249999D01*
G01*
G37*
%TD*%
M02*
