%TF.GenerationSoftware,KiCad,Pcbnew,5.1.10*%
%TF.CreationDate,2021-05-14T23:01:05+02:00*%
%TF.ProjectId,kenwood-trrs,6b656e77-6f6f-4642-9d74-7272732e6b69,rev?*%
%TF.SameCoordinates,Original*%
%TF.FileFunction,Legend,Bot*%
%TF.FilePolarity,Positive*%
%FSLAX46Y46*%
G04 Gerber Fmt 4.6, Leading zero omitted, Abs format (unit mm)*
G04 Created by KiCad (PCBNEW 5.1.10) date 2021-05-14 23:01:05*
%MOMM*%
%LPD*%
G01*
G04 APERTURE LIST*
%ADD10C,0.120000*%
%ADD11C,0.200000*%
%ADD12C,0.150000*%
%ADD13C,0.100000*%
G04 APERTURE END LIST*
D10*
%TO.C,C1*%
X151620000Y-82820000D02*
G75*
G03*
X151620000Y-82820000I-2620000J0D01*
G01*
X147960000Y-82820000D02*
X146420000Y-82820000D01*
X151580000Y-82820000D02*
X150040000Y-82820000D01*
X147960000Y-82780000D02*
X146420000Y-82780000D01*
X151580000Y-82780000D02*
X150040000Y-82780000D01*
X151579000Y-82740000D02*
X150040000Y-82740000D01*
X147960000Y-82740000D02*
X146421000Y-82740000D01*
X151578000Y-82700000D02*
X150040000Y-82700000D01*
X147960000Y-82700000D02*
X146422000Y-82700000D01*
X151576000Y-82660000D02*
X150040000Y-82660000D01*
X147960000Y-82660000D02*
X146424000Y-82660000D01*
X151573000Y-82620000D02*
X150040000Y-82620000D01*
X147960000Y-82620000D02*
X146427000Y-82620000D01*
X151569000Y-82580000D02*
X150040000Y-82580000D01*
X147960000Y-82580000D02*
X146431000Y-82580000D01*
X151565000Y-82540000D02*
X150040000Y-82540000D01*
X147960000Y-82540000D02*
X146435000Y-82540000D01*
X151561000Y-82500000D02*
X150040000Y-82500000D01*
X147960000Y-82500000D02*
X146439000Y-82500000D01*
X151556000Y-82460000D02*
X150040000Y-82460000D01*
X147960000Y-82460000D02*
X146444000Y-82460000D01*
X151550000Y-82420000D02*
X150040000Y-82420000D01*
X147960000Y-82420000D02*
X146450000Y-82420000D01*
X151543000Y-82380000D02*
X150040000Y-82380000D01*
X147960000Y-82380000D02*
X146457000Y-82380000D01*
X151536000Y-82340000D02*
X150040000Y-82340000D01*
X147960000Y-82340000D02*
X146464000Y-82340000D01*
X151528000Y-82300000D02*
X150040000Y-82300000D01*
X147960000Y-82300000D02*
X146472000Y-82300000D01*
X151520000Y-82260000D02*
X150040000Y-82260000D01*
X147960000Y-82260000D02*
X146480000Y-82260000D01*
X151511000Y-82220000D02*
X150040000Y-82220000D01*
X147960000Y-82220000D02*
X146489000Y-82220000D01*
X151501000Y-82180000D02*
X150040000Y-82180000D01*
X147960000Y-82180000D02*
X146499000Y-82180000D01*
X151491000Y-82140000D02*
X150040000Y-82140000D01*
X147960000Y-82140000D02*
X146509000Y-82140000D01*
X151480000Y-82099000D02*
X150040000Y-82099000D01*
X147960000Y-82099000D02*
X146520000Y-82099000D01*
X151468000Y-82059000D02*
X150040000Y-82059000D01*
X147960000Y-82059000D02*
X146532000Y-82059000D01*
X151455000Y-82019000D02*
X150040000Y-82019000D01*
X147960000Y-82019000D02*
X146545000Y-82019000D01*
X151442000Y-81979000D02*
X150040000Y-81979000D01*
X147960000Y-81979000D02*
X146558000Y-81979000D01*
X151428000Y-81939000D02*
X150040000Y-81939000D01*
X147960000Y-81939000D02*
X146572000Y-81939000D01*
X151414000Y-81899000D02*
X150040000Y-81899000D01*
X147960000Y-81899000D02*
X146586000Y-81899000D01*
X151398000Y-81859000D02*
X150040000Y-81859000D01*
X147960000Y-81859000D02*
X146602000Y-81859000D01*
X151382000Y-81819000D02*
X150040000Y-81819000D01*
X147960000Y-81819000D02*
X146618000Y-81819000D01*
X151365000Y-81779000D02*
X150040000Y-81779000D01*
X147960000Y-81779000D02*
X146635000Y-81779000D01*
X151348000Y-81739000D02*
X150040000Y-81739000D01*
X147960000Y-81739000D02*
X146652000Y-81739000D01*
X151329000Y-81699000D02*
X150040000Y-81699000D01*
X147960000Y-81699000D02*
X146671000Y-81699000D01*
X151310000Y-81659000D02*
X150040000Y-81659000D01*
X147960000Y-81659000D02*
X146690000Y-81659000D01*
X151290000Y-81619000D02*
X150040000Y-81619000D01*
X147960000Y-81619000D02*
X146710000Y-81619000D01*
X151268000Y-81579000D02*
X150040000Y-81579000D01*
X147960000Y-81579000D02*
X146732000Y-81579000D01*
X151247000Y-81539000D02*
X150040000Y-81539000D01*
X147960000Y-81539000D02*
X146753000Y-81539000D01*
X151224000Y-81499000D02*
X150040000Y-81499000D01*
X147960000Y-81499000D02*
X146776000Y-81499000D01*
X151200000Y-81459000D02*
X150040000Y-81459000D01*
X147960000Y-81459000D02*
X146800000Y-81459000D01*
X151175000Y-81419000D02*
X150040000Y-81419000D01*
X147960000Y-81419000D02*
X146825000Y-81419000D01*
X151149000Y-81379000D02*
X150040000Y-81379000D01*
X147960000Y-81379000D02*
X146851000Y-81379000D01*
X151122000Y-81339000D02*
X150040000Y-81339000D01*
X147960000Y-81339000D02*
X146878000Y-81339000D01*
X151095000Y-81299000D02*
X150040000Y-81299000D01*
X147960000Y-81299000D02*
X146905000Y-81299000D01*
X151065000Y-81259000D02*
X150040000Y-81259000D01*
X147960000Y-81259000D02*
X146935000Y-81259000D01*
X151035000Y-81219000D02*
X150040000Y-81219000D01*
X147960000Y-81219000D02*
X146965000Y-81219000D01*
X151004000Y-81179000D02*
X150040000Y-81179000D01*
X147960000Y-81179000D02*
X146996000Y-81179000D01*
X150971000Y-81139000D02*
X150040000Y-81139000D01*
X147960000Y-81139000D02*
X147029000Y-81139000D01*
X150937000Y-81099000D02*
X150040000Y-81099000D01*
X147960000Y-81099000D02*
X147063000Y-81099000D01*
X150901000Y-81059000D02*
X150040000Y-81059000D01*
X147960000Y-81059000D02*
X147099000Y-81059000D01*
X150864000Y-81019000D02*
X150040000Y-81019000D01*
X147960000Y-81019000D02*
X147136000Y-81019000D01*
X150826000Y-80979000D02*
X150040000Y-80979000D01*
X147960000Y-80979000D02*
X147174000Y-80979000D01*
X150785000Y-80939000D02*
X150040000Y-80939000D01*
X147960000Y-80939000D02*
X147215000Y-80939000D01*
X150743000Y-80899000D02*
X150040000Y-80899000D01*
X147960000Y-80899000D02*
X147257000Y-80899000D01*
X150699000Y-80859000D02*
X150040000Y-80859000D01*
X147960000Y-80859000D02*
X147301000Y-80859000D01*
X150653000Y-80819000D02*
X150040000Y-80819000D01*
X147960000Y-80819000D02*
X147347000Y-80819000D01*
X150605000Y-80779000D02*
X147395000Y-80779000D01*
X150554000Y-80739000D02*
X147446000Y-80739000D01*
X150500000Y-80699000D02*
X147500000Y-80699000D01*
X150443000Y-80659000D02*
X147557000Y-80659000D01*
X150383000Y-80619000D02*
X147617000Y-80619000D01*
X150319000Y-80579000D02*
X147681000Y-80579000D01*
X150251000Y-80539000D02*
X147749000Y-80539000D01*
X150178000Y-80499000D02*
X147822000Y-80499000D01*
X150098000Y-80459000D02*
X147902000Y-80459000D01*
X150011000Y-80419000D02*
X147989000Y-80419000D01*
X149915000Y-80379000D02*
X148085000Y-80379000D01*
X149805000Y-80339000D02*
X148195000Y-80339000D01*
X149677000Y-80299000D02*
X148323000Y-80299000D01*
X149518000Y-80259000D02*
X148482000Y-80259000D01*
X149284000Y-80219000D02*
X148716000Y-80219000D01*
X150475000Y-85624775D02*
X150475000Y-85124775D01*
X150725000Y-85374775D02*
X150225000Y-85374775D01*
D11*
%TO.C,J3*%
X159600000Y-85800000D02*
X148100000Y-85800000D01*
X148100000Y-85800000D02*
X148100000Y-91800000D01*
X148100000Y-91800000D02*
X159600000Y-91800000D01*
D10*
%TO.C,J2*%
X155178000Y-73741000D02*
X149499000Y-73741000D01*
X149499000Y-73741000D02*
X149499000Y-75530000D01*
X149499000Y-78070000D02*
X149499000Y-79861000D01*
X149499000Y-79861000D02*
X155178000Y-79861000D01*
X156000000Y-79900000D02*
X159060000Y-79900000D01*
X159038000Y-79900000D02*
X159038000Y-73741000D01*
X159038000Y-73741000D02*
X155978000Y-73741000D01*
%TO.C,C1*%
D12*
X153107142Y-82653333D02*
X153154761Y-82605714D01*
X153202380Y-82462857D01*
X153202380Y-82367619D01*
X153154761Y-82224761D01*
X153059523Y-82129523D01*
X152964285Y-82081904D01*
X152773809Y-82034285D01*
X152630952Y-82034285D01*
X152440476Y-82081904D01*
X152345238Y-82129523D01*
X152250000Y-82224761D01*
X152202380Y-82367619D01*
X152202380Y-82462857D01*
X152250000Y-82605714D01*
X152297619Y-82653333D01*
X153202380Y-83605714D02*
X153202380Y-83034285D01*
X153202380Y-83320000D02*
X152202380Y-83320000D01*
X152345238Y-83224761D01*
X152440476Y-83129523D01*
X152488095Y-83034285D01*
%TO.C,J3*%
X149366666Y-92261904D02*
X149366666Y-92833333D01*
X149404761Y-92947619D01*
X149480952Y-93023809D01*
X149595238Y-93061904D01*
X149671428Y-93061904D01*
X149061904Y-92261904D02*
X148566666Y-92261904D01*
X148833333Y-92566666D01*
X148719047Y-92566666D01*
X148642857Y-92604761D01*
X148604761Y-92642857D01*
X148566666Y-92719047D01*
X148566666Y-92909523D01*
X148604761Y-92985714D01*
X148642857Y-93023809D01*
X148719047Y-93061904D01*
X148947619Y-93061904D01*
X149023809Y-93023809D01*
X149061904Y-92985714D01*
%TO.C,J1*%
D13*
X151483333Y-95470000D02*
X151516666Y-95570000D01*
X151516666Y-95736666D01*
X151483333Y-95803333D01*
X151450000Y-95836666D01*
X151383333Y-95870000D01*
X151316666Y-95870000D01*
X151250000Y-95836666D01*
X151216666Y-95803333D01*
X151183333Y-95736666D01*
X151150000Y-95603333D01*
X151116666Y-95536666D01*
X151083333Y-95503333D01*
X151016666Y-95470000D01*
X150950000Y-95470000D01*
X150883333Y-95503333D01*
X150850000Y-95536666D01*
X150816666Y-95603333D01*
X150816666Y-95770000D01*
X150850000Y-95870000D01*
X155649666Y-95807333D02*
X155316333Y-95574000D01*
X155649666Y-95407333D02*
X154949666Y-95407333D01*
X154949666Y-95674000D01*
X154983000Y-95740666D01*
X155016333Y-95774000D01*
X155083000Y-95807333D01*
X155183000Y-95807333D01*
X155249666Y-95774000D01*
X155283000Y-95740666D01*
X155316333Y-95674000D01*
X155316333Y-95407333D01*
X155649666Y-96474000D02*
X155649666Y-96074000D01*
X155649666Y-96274000D02*
X154949666Y-96274000D01*
X155049666Y-96207333D01*
X155116333Y-96140666D01*
X155149666Y-96074000D01*
X153363666Y-95807333D02*
X153030333Y-95574000D01*
X153363666Y-95407333D02*
X152663666Y-95407333D01*
X152663666Y-95674000D01*
X152697000Y-95740666D01*
X152730333Y-95774000D01*
X152797000Y-95807333D01*
X152897000Y-95807333D01*
X152963666Y-95774000D01*
X152997000Y-95740666D01*
X153030333Y-95674000D01*
X153030333Y-95407333D01*
X152730333Y-96074000D02*
X152697000Y-96107333D01*
X152663666Y-96174000D01*
X152663666Y-96340666D01*
X152697000Y-96407333D01*
X152730333Y-96440666D01*
X152797000Y-96474000D01*
X152863666Y-96474000D01*
X152963666Y-96440666D01*
X153363666Y-96040666D01*
X153363666Y-96474000D01*
X156616666Y-95470000D02*
X156616666Y-95870000D01*
X157316666Y-95670000D02*
X156616666Y-95670000D01*
%TO.C,J2*%
D12*
X148261904Y-78633333D02*
X148833333Y-78633333D01*
X148947619Y-78595238D01*
X149023809Y-78519047D01*
X149061904Y-78404761D01*
X149061904Y-78328571D01*
X148338095Y-78976190D02*
X148300000Y-79014285D01*
X148261904Y-79090476D01*
X148261904Y-79280952D01*
X148300000Y-79357142D01*
X148338095Y-79395238D01*
X148414285Y-79433333D01*
X148490476Y-79433333D01*
X148604761Y-79395238D01*
X149061904Y-78938095D01*
X149061904Y-79433333D01*
%TD*%
M02*
