%TF.GenerationSoftware,KiCad,Pcbnew,5.1.10*%
%TF.CreationDate,2021-05-14T23:01:05+02:00*%
%TF.ProjectId,kenwood-trrs,6b656e77-6f6f-4642-9d74-7272732e6b69,rev?*%
%TF.SameCoordinates,Original*%
%TF.FileFunction,Soldermask,Top*%
%TF.FilePolarity,Negative*%
%FSLAX46Y46*%
G04 Gerber Fmt 4.6, Leading zero omitted, Abs format (unit mm)*
G04 Created by KiCad (PCBNEW 5.1.10) date 2021-05-14 23:01:05*
%MOMM*%
%LPD*%
G01*
G04 APERTURE LIST*
%ADD10C,1.700000*%
%ADD11O,2.300000X1.700000*%
%ADD12O,1.800000X1.800000*%
%ADD13O,2.200000X1.600000*%
%ADD14O,1.600000X2.200000*%
G04 APERTURE END LIST*
%TO.C,Q1*%
G36*
G01*
X152700000Y-81650000D02*
X151900000Y-81650000D01*
G75*
G02*
X151850000Y-81600000I0J50000D01*
G01*
X151850000Y-79700000D01*
G75*
G02*
X151900000Y-79650000I50000J0D01*
G01*
X152700000Y-79650000D01*
G75*
G02*
X152750000Y-79700000I0J-50000D01*
G01*
X152750000Y-81600000D01*
G75*
G02*
X152700000Y-81650000I-50000J0D01*
G01*
G37*
G36*
G01*
X153650000Y-84650000D02*
X152850000Y-84650000D01*
G75*
G02*
X152800000Y-84600000I0J50000D01*
G01*
X152800000Y-82700000D01*
G75*
G02*
X152850000Y-82650000I50000J0D01*
G01*
X153650000Y-82650000D01*
G75*
G02*
X153700000Y-82700000I0J-50000D01*
G01*
X153700000Y-84600000D01*
G75*
G02*
X153650000Y-84650000I-50000J0D01*
G01*
G37*
G36*
G01*
X151750000Y-84650000D02*
X150950000Y-84650000D01*
G75*
G02*
X150900000Y-84600000I0J50000D01*
G01*
X150900000Y-82700000D01*
G75*
G02*
X150950000Y-82650000I50000J0D01*
G01*
X151750000Y-82650000D01*
G75*
G02*
X151800000Y-82700000I0J-50000D01*
G01*
X151800000Y-84600000D01*
G75*
G02*
X151750000Y-84650000I-50000J0D01*
G01*
G37*
%TD*%
%TO.C,R5*%
G36*
G01*
X158079168Y-82358000D02*
X157120832Y-82358000D01*
G75*
G02*
X156850000Y-82087168I0J270832D01*
G01*
X156850000Y-81328832D01*
G75*
G02*
X157120832Y-81058000I270832J0D01*
G01*
X158079168Y-81058000D01*
G75*
G02*
X158350000Y-81328832I0J-270832D01*
G01*
X158350000Y-82087168D01*
G75*
G02*
X158079168Y-82358000I-270832J0D01*
G01*
G37*
G36*
G01*
X158079168Y-84358000D02*
X157120832Y-84358000D01*
G75*
G02*
X156850000Y-84087168I0J270832D01*
G01*
X156850000Y-83328832D01*
G75*
G02*
X157120832Y-83058000I270832J0D01*
G01*
X158079168Y-83058000D01*
G75*
G02*
X158350000Y-83328832I0J-270832D01*
G01*
X158350000Y-84087168D01*
G75*
G02*
X158079168Y-84358000I-270832J0D01*
G01*
G37*
%TD*%
%TO.C,R4*%
G36*
G01*
X155779168Y-82358000D02*
X154820832Y-82358000D01*
G75*
G02*
X154550000Y-82087168I0J270832D01*
G01*
X154550000Y-81328832D01*
G75*
G02*
X154820832Y-81058000I270832J0D01*
G01*
X155779168Y-81058000D01*
G75*
G02*
X156050000Y-81328832I0J-270832D01*
G01*
X156050000Y-82087168D01*
G75*
G02*
X155779168Y-82358000I-270832J0D01*
G01*
G37*
G36*
G01*
X155779168Y-84358000D02*
X154820832Y-84358000D01*
G75*
G02*
X154550000Y-84087168I0J270832D01*
G01*
X154550000Y-83328832D01*
G75*
G02*
X154820832Y-83058000I270832J0D01*
G01*
X155779168Y-83058000D01*
G75*
G02*
X156050000Y-83328832I0J-270832D01*
G01*
X156050000Y-84087168D01*
G75*
G02*
X155779168Y-84358000I-270832J0D01*
G01*
G37*
%TD*%
%TO.C,R1*%
G36*
G01*
X149500000Y-79520832D02*
X149500000Y-80479168D01*
G75*
G02*
X149229168Y-80750000I-270832J0D01*
G01*
X148470832Y-80750000D01*
G75*
G02*
X148200000Y-80479168I0J270832D01*
G01*
X148200000Y-79520832D01*
G75*
G02*
X148470832Y-79250000I270832J0D01*
G01*
X149229168Y-79250000D01*
G75*
G02*
X149500000Y-79520832I0J-270832D01*
G01*
G37*
G36*
G01*
X151500000Y-79520832D02*
X151500000Y-80479168D01*
G75*
G02*
X151229168Y-80750000I-270832J0D01*
G01*
X150470832Y-80750000D01*
G75*
G02*
X150200000Y-80479168I0J270832D01*
G01*
X150200000Y-79520832D01*
G75*
G02*
X150470832Y-79250000I270832J0D01*
G01*
X151229168Y-79250000D01*
G75*
G02*
X151500000Y-79520832I0J-270832D01*
G01*
G37*
%TD*%
%TO.C,C2*%
G36*
G01*
X148598000Y-89620000D02*
X149598000Y-89620000D01*
G75*
G02*
X149873000Y-89895000I0J-275000D01*
G01*
X149873000Y-90445000D01*
G75*
G02*
X149598000Y-90720000I-275000J0D01*
G01*
X148598000Y-90720000D01*
G75*
G02*
X148323000Y-90445000I0J275000D01*
G01*
X148323000Y-89895000D01*
G75*
G02*
X148598000Y-89620000I275000J0D01*
G01*
G37*
G36*
G01*
X148598000Y-87720000D02*
X149598000Y-87720000D01*
G75*
G02*
X149873000Y-87995000I0J-275000D01*
G01*
X149873000Y-88545000D01*
G75*
G02*
X149598000Y-88820000I-275000J0D01*
G01*
X148598000Y-88820000D01*
G75*
G02*
X148323000Y-88545000I0J275000D01*
G01*
X148323000Y-87995000D01*
G75*
G02*
X148598000Y-87720000I275000J0D01*
G01*
G37*
%TD*%
D10*
%TO.C,C1*%
X149000000Y-81820000D03*
G36*
G01*
X149800000Y-84670000D02*
X148200000Y-84670000D01*
G75*
G02*
X148150000Y-84620000I0J50000D01*
G01*
X148150000Y-83020000D01*
G75*
G02*
X148200000Y-82970000I50000J0D01*
G01*
X149800000Y-82970000D01*
G75*
G02*
X149850000Y-83020000I0J-50000D01*
G01*
X149850000Y-84620000D01*
G75*
G02*
X149800000Y-84670000I-50000J0D01*
G01*
G37*
%TD*%
%TO.C,J3*%
X157100000Y-88800000D03*
X151100000Y-88800000D03*
D11*
X157800000Y-85650000D03*
X157800000Y-91950000D03*
X154600000Y-85650000D03*
X151100000Y-85650000D03*
X151100000Y-91950000D03*
%TD*%
D12*
%TO.C,J1*%
X150380000Y-94400000D03*
X152920000Y-94400000D03*
X155460000Y-94400000D03*
G36*
G01*
X157150000Y-93500000D02*
X158850000Y-93500000D01*
G75*
G02*
X158900000Y-93550000I0J-50000D01*
G01*
X158900000Y-95250000D01*
G75*
G02*
X158850000Y-95300000I-50000J0D01*
G01*
X157150000Y-95300000D01*
G75*
G02*
X157100000Y-95250000I0J50000D01*
G01*
X157100000Y-93550000D01*
G75*
G02*
X157150000Y-93500000I50000J0D01*
G01*
G37*
%TD*%
D13*
%TO.C,J2*%
X152900000Y-75050000D03*
D14*
X150150000Y-76800000D03*
D13*
X152900000Y-78550000D03*
D10*
X155600000Y-76800000D03*
%TD*%
%TO.C,R3*%
G36*
G01*
X156625000Y-78321738D02*
X156625000Y-79278262D01*
G75*
G02*
X156353262Y-79550000I-271738J0D01*
G01*
X155646738Y-79550000D01*
G75*
G02*
X155375000Y-79278262I0J271738D01*
G01*
X155375000Y-78321738D01*
G75*
G02*
X155646738Y-78050000I271738J0D01*
G01*
X156353262Y-78050000D01*
G75*
G02*
X156625000Y-78321738I0J-271738D01*
G01*
G37*
G36*
G01*
X158675000Y-78321738D02*
X158675000Y-79278262D01*
G75*
G02*
X158403262Y-79550000I-271738J0D01*
G01*
X157696738Y-79550000D01*
G75*
G02*
X157425000Y-79278262I0J271738D01*
G01*
X157425000Y-78321738D01*
G75*
G02*
X157696738Y-78050000I271738J0D01*
G01*
X158403262Y-78050000D01*
G75*
G02*
X158675000Y-78321738I0J-271738D01*
G01*
G37*
%TD*%
%TO.C,R2*%
G36*
G01*
X156625000Y-74321738D02*
X156625000Y-75278262D01*
G75*
G02*
X156353262Y-75550000I-271738J0D01*
G01*
X155646738Y-75550000D01*
G75*
G02*
X155375000Y-75278262I0J271738D01*
G01*
X155375000Y-74321738D01*
G75*
G02*
X155646738Y-74050000I271738J0D01*
G01*
X156353262Y-74050000D01*
G75*
G02*
X156625000Y-74321738I0J-271738D01*
G01*
G37*
G36*
G01*
X158675000Y-74321738D02*
X158675000Y-75278262D01*
G75*
G02*
X158403262Y-75550000I-271738J0D01*
G01*
X157696738Y-75550000D01*
G75*
G02*
X157425000Y-75278262I0J271738D01*
G01*
X157425000Y-74321738D01*
G75*
G02*
X157696738Y-74050000I271738J0D01*
G01*
X158403262Y-74050000D01*
G75*
G02*
X158675000Y-74321738I0J-271738D01*
G01*
G37*
%TD*%
M02*
