M48
; DRILL file {KiCad 5.1.10} date Fri May 14 23:00:28 2021
; FORMAT={-:-/ absolute / inch / decimal}
; #@! TF.CreationDate,2021-05-14T23:00:28+02:00
; #@! TF.GenerationSoftware,Kicad,Pcbnew,5.1.10
FMAT,2
INCH
T1C0.0157
T2C0.0197
T3C0.0315
T4C0.0354
T5C0.0394
T6C0.0630
%
G90
G05
T1
X5.8608Y-3.4128
X5.8661Y-3.0984
X5.87Y-3.59
X5.9213Y-3.3169
X5.998Y-3.2933
X6.0197Y-3.4291
X6.2598Y-2.9882
T3
X5.8661Y-3.2213
X5.8661Y-3.3
T5
X5.9205Y-3.7165
X6.0205Y-3.7165
X6.1205Y-3.7165
X6.2205Y-3.7165
T6
X5.9488Y-3.4961
X6.126Y-3.0236
X6.185Y-3.4961
T2
G00X5.9114Y-3.0098
M15
G01X5.9114Y-3.0374
M16
G05
G00X6.0335Y-2.9547
M15
G01X6.0059Y-2.9547
M16
G05
G00X6.0335Y-3.0925
M15
G01X6.0059Y-3.0925
M16
G05
T4
G00X5.9587Y-3.372
M15
G01X5.939Y-3.372
M16
G05
G00X5.9587Y-3.6201
M15
G01X5.939Y-3.6201
M16
G05
G00X6.0965Y-3.372
M15
G01X6.0768Y-3.372
M16
G05
G00X6.2224Y-3.372
M15
G01X6.2028Y-3.372
M16
G05
G00X6.2224Y-3.6201
M15
G01X6.2028Y-3.6201
M16
G05
T0
M30
