%TF.GenerationSoftware,KiCad,Pcbnew,5.1.10*%
%TF.CreationDate,2021-05-14T23:01:05+02:00*%
%TF.ProjectId,kenwood-trrs,6b656e77-6f6f-4642-9d74-7272732e6b69,rev?*%
%TF.SameCoordinates,Original*%
%TF.FileFunction,Copper,L2,Bot*%
%TF.FilePolarity,Positive*%
%FSLAX46Y46*%
G04 Gerber Fmt 4.6, Leading zero omitted, Abs format (unit mm)*
G04 Created by KiCad (PCBNEW 5.1.10) date 2021-05-14 23:01:05*
%MOMM*%
%LPD*%
G01*
G04 APERTURE LIST*
%TA.AperFunction,ComponentPad*%
%ADD10C,1.600000*%
%TD*%
%TA.AperFunction,ComponentPad*%
%ADD11R,1.600000X1.600000*%
%TD*%
%TA.AperFunction,ComponentPad*%
%ADD12O,2.200000X1.600000*%
%TD*%
%TA.AperFunction,ComponentPad*%
%ADD13O,1.700000X1.700000*%
%TD*%
%TA.AperFunction,ComponentPad*%
%ADD14R,1.700000X1.700000*%
%TD*%
%TA.AperFunction,ComponentPad*%
%ADD15O,2.100000X1.500000*%
%TD*%
%TA.AperFunction,ComponentPad*%
%ADD16O,1.500000X2.100000*%
%TD*%
%TA.AperFunction,ViaPad*%
%ADD17C,0.800000*%
%TD*%
%TA.AperFunction,Conductor*%
%ADD18C,0.500000*%
%TD*%
%TA.AperFunction,Conductor*%
%ADD19C,0.300000*%
%TD*%
%TA.AperFunction,Conductor*%
%ADD20C,0.250000*%
%TD*%
%TA.AperFunction,Conductor*%
%ADD21C,0.200000*%
%TD*%
%TA.AperFunction,Conductor*%
%ADD22C,0.150000*%
%TD*%
%TA.AperFunction,Conductor*%
%ADD23C,0.100000*%
%TD*%
G04 APERTURE END LIST*
D10*
%TO.P,C1,2*%
%TO.N,Net-(C1-Pad2)*%
X149000000Y-81820000D03*
D11*
%TO.P,C1,1*%
%TO.N,/Mic+*%
X149000000Y-83820000D03*
%TD*%
D12*
%TO.P,J3,S*%
%TO.N,/PTT_Mic-*%
X157800000Y-85650000D03*
X157800000Y-91950000D03*
%TO.P,J3,R*%
%TO.N,/Mic+*%
X154600000Y-85650000D03*
%TO.P,J3,T*%
%TO.N,Net-(J3-PadT)*%
X151100000Y-85650000D03*
X151100000Y-91950000D03*
%TD*%
D13*
%TO.P,J1,S*%
%TO.N,/Mic+*%
X150380000Y-94400000D03*
%TO.P,J1,R2*%
%TO.N,GND*%
X152920000Y-94400000D03*
%TO.P,J1,R1*%
%TO.N,Net-(J1-PadR1)*%
X155460000Y-94400000D03*
D14*
%TO.P,J1,T*%
%TO.N,Net-(J1-PadT)*%
X158000000Y-94400000D03*
%TD*%
D15*
%TO.P,J2,R*%
%TO.N,GND*%
X152900000Y-75050000D03*
D16*
%TO.P,J2,S*%
X150150000Y-76800000D03*
D15*
%TO.P,J2,T*%
%TO.N,Net-(J2-PadT)*%
X152900000Y-78550000D03*
%TD*%
D17*
%TO.N,GND*%
X149098000Y-91186000D03*
X152900000Y-87099998D03*
X152350000Y-83650000D03*
X149000000Y-78700000D03*
%TO.N,Net-(J1-PadR1)*%
X159000000Y-75900000D03*
%TO.N,Net-(C2-Pad1)*%
X148865069Y-86684932D03*
X150400002Y-84250000D03*
%TD*%
D18*
%TO.N,Net-(J1-PadR1)*%
X155460000Y-93378999D02*
X155460000Y-94400000D01*
X155956000Y-92882999D02*
X155460000Y-93378999D01*
X155956000Y-91440000D02*
X155956000Y-92882999D01*
X156846001Y-90549999D02*
X155956000Y-91440000D01*
X158289000Y-90549999D02*
X156846001Y-90549999D01*
X159200001Y-89638998D02*
X158289000Y-90549999D01*
D19*
X159200001Y-86176358D02*
X159250010Y-86126349D01*
X159200001Y-89638998D02*
X159200001Y-86176358D01*
X159250010Y-86126349D02*
X159250010Y-77749990D01*
D20*
X159250010Y-76150010D02*
X159000000Y-75900000D01*
X159250010Y-77749990D02*
X159250010Y-76150010D01*
D21*
%TO.N,Net-(C2-Pad1)*%
X150400002Y-84494349D02*
X150400002Y-84250000D01*
X148865069Y-86029282D02*
X150400002Y-84494349D01*
X148865069Y-86684932D02*
X148865069Y-86029282D01*
%TD*%
D22*
%TO.N,GND*%
X151586155Y-74163834D02*
X151432753Y-74378653D01*
X151324208Y-74619271D01*
X151323338Y-74666565D01*
X151426321Y-74871000D01*
X152721000Y-74871000D01*
X152721000Y-74851000D01*
X153079000Y-74851000D01*
X153079000Y-74871000D01*
X154373679Y-74871000D01*
X154476662Y-74666565D01*
X154475792Y-74619271D01*
X154367247Y-74378653D01*
X154213845Y-74163834D01*
X154172519Y-74125000D01*
X158968751Y-74125000D01*
X159188743Y-74418324D01*
X159275000Y-74547709D01*
X159275000Y-75066816D01*
X159255228Y-75058626D01*
X159086180Y-75025000D01*
X158913820Y-75025000D01*
X158744772Y-75058626D01*
X158585532Y-75124585D01*
X158442220Y-75220343D01*
X158320343Y-75342220D01*
X158224585Y-75485532D01*
X158158626Y-75644772D01*
X158125000Y-75813820D01*
X158125000Y-75986180D01*
X158158626Y-76155228D01*
X158224585Y-76314468D01*
X158320343Y-76457780D01*
X158442220Y-76579657D01*
X158585532Y-76675415D01*
X158650011Y-76702123D01*
X158650010Y-77574868D01*
X158634054Y-77627469D01*
X158625011Y-77719286D01*
X158625010Y-84484917D01*
X158590282Y-84466354D01*
X158349944Y-84393448D01*
X158162636Y-84375000D01*
X157437364Y-84375000D01*
X157250056Y-84393448D01*
X157009718Y-84466354D01*
X156788221Y-84584747D01*
X156594077Y-84744077D01*
X156434747Y-84938221D01*
X156316354Y-85159718D01*
X156243448Y-85400056D01*
X156218831Y-85650000D01*
X156243448Y-85899944D01*
X156316354Y-86140282D01*
X156434747Y-86361779D01*
X156594077Y-86555923D01*
X156788221Y-86715253D01*
X157009718Y-86833646D01*
X157250056Y-86906552D01*
X157437364Y-86925000D01*
X158162636Y-86925000D01*
X158349944Y-86906552D01*
X158575002Y-86838281D01*
X158575001Y-89238693D01*
X157988696Y-89824999D01*
X157860920Y-89824999D01*
X157912765Y-89790357D01*
X158090357Y-89612765D01*
X158229890Y-89403939D01*
X158326002Y-89171904D01*
X158375000Y-88925577D01*
X158375000Y-88674423D01*
X158326002Y-88428096D01*
X158229890Y-88196061D01*
X158090357Y-87987235D01*
X157912765Y-87809643D01*
X157703939Y-87670110D01*
X157471904Y-87573998D01*
X157225577Y-87525000D01*
X156974423Y-87525000D01*
X156728096Y-87573998D01*
X156496061Y-87670110D01*
X156287235Y-87809643D01*
X156109643Y-87987235D01*
X155970110Y-88196061D01*
X155873998Y-88428096D01*
X155825000Y-88674423D01*
X155825000Y-88925577D01*
X155873998Y-89171904D01*
X155970110Y-89403939D01*
X156109643Y-89612765D01*
X156287235Y-89790357D01*
X156483662Y-89921606D01*
X156441264Y-89944268D01*
X156358526Y-90012169D01*
X156358524Y-90012171D01*
X156330869Y-90034867D01*
X156308173Y-90062522D01*
X155468524Y-90902172D01*
X155440868Y-90924869D01*
X155418172Y-90952524D01*
X155418170Y-90952526D01*
X155350270Y-91035263D01*
X155350269Y-91035264D01*
X155282947Y-91161213D01*
X155241491Y-91297876D01*
X155231000Y-91404394D01*
X155231000Y-91404403D01*
X155227494Y-91440000D01*
X155231000Y-91475597D01*
X155231001Y-92582694D01*
X154972523Y-92841172D01*
X154944868Y-92863868D01*
X154922172Y-92891523D01*
X154922170Y-92891525D01*
X154854270Y-92974262D01*
X154854269Y-92974263D01*
X154786947Y-93100212D01*
X154745491Y-93236875D01*
X154740538Y-93287165D01*
X154615362Y-93370805D01*
X154430805Y-93555362D01*
X154285800Y-93772377D01*
X154244651Y-93871719D01*
X154191950Y-93739960D01*
X154038742Y-93504497D01*
X153842542Y-93303448D01*
X153610889Y-93144539D01*
X153352685Y-93033877D01*
X153319211Y-93023730D01*
X153099000Y-93125256D01*
X153099000Y-94221000D01*
X153119000Y-94221000D01*
X153119000Y-94579000D01*
X153099000Y-94579000D01*
X153099000Y-94599000D01*
X152741000Y-94599000D01*
X152741000Y-94579000D01*
X152721000Y-94579000D01*
X152721000Y-94221000D01*
X152741000Y-94221000D01*
X152741000Y-93125256D01*
X152520789Y-93023730D01*
X152487315Y-93033877D01*
X152229111Y-93144539D01*
X151997458Y-93303448D01*
X151801258Y-93504497D01*
X151648050Y-93739960D01*
X151595349Y-93871719D01*
X151554200Y-93772377D01*
X151409195Y-93555362D01*
X151224638Y-93370805D01*
X151007623Y-93225800D01*
X151005692Y-93225000D01*
X151462636Y-93225000D01*
X151649944Y-93206552D01*
X151890282Y-93133646D01*
X152111779Y-93015253D01*
X152305923Y-92855923D01*
X152465253Y-92661779D01*
X152583646Y-92440282D01*
X152656552Y-92199944D01*
X152681169Y-91950000D01*
X152656552Y-91700056D01*
X152583646Y-91459718D01*
X152465253Y-91238221D01*
X152305923Y-91044077D01*
X152111779Y-90884747D01*
X151890282Y-90766354D01*
X151649944Y-90693448D01*
X151462636Y-90675000D01*
X150737364Y-90675000D01*
X150550056Y-90693448D01*
X150309718Y-90766354D01*
X150088221Y-90884747D01*
X149894077Y-91044077D01*
X149734747Y-91238221D01*
X149616354Y-91459718D01*
X149543448Y-91700056D01*
X149518831Y-91950000D01*
X149543448Y-92199944D01*
X149616354Y-92440282D01*
X149734747Y-92661779D01*
X149894077Y-92855923D01*
X150088221Y-93015253D01*
X150213424Y-93082176D01*
X149993512Y-93125919D01*
X149752377Y-93225800D01*
X149535362Y-93370805D01*
X149350805Y-93555362D01*
X149205800Y-93772377D01*
X149105919Y-94013512D01*
X149055000Y-94269499D01*
X149055000Y-94530501D01*
X149105919Y-94786488D01*
X149205800Y-95027623D01*
X149350805Y-95244638D01*
X149535362Y-95429195D01*
X149641329Y-95500000D01*
X149007107Y-95500000D01*
X148525000Y-95017895D01*
X148525000Y-88674423D01*
X149825000Y-88674423D01*
X149825000Y-88925577D01*
X149873998Y-89171904D01*
X149970110Y-89403939D01*
X150109643Y-89612765D01*
X150287235Y-89790357D01*
X150496061Y-89929890D01*
X150728096Y-90026002D01*
X150974423Y-90075000D01*
X151225577Y-90075000D01*
X151471904Y-90026002D01*
X151703939Y-89929890D01*
X151912765Y-89790357D01*
X152090357Y-89612765D01*
X152229890Y-89403939D01*
X152326002Y-89171904D01*
X152375000Y-88925577D01*
X152375000Y-88674423D01*
X152326002Y-88428096D01*
X152229890Y-88196061D01*
X152090357Y-87987235D01*
X151912765Y-87809643D01*
X151703939Y-87670110D01*
X151471904Y-87573998D01*
X151225577Y-87525000D01*
X150974423Y-87525000D01*
X150728096Y-87573998D01*
X150496061Y-87670110D01*
X150287235Y-87809643D01*
X150109643Y-87987235D01*
X149970110Y-88196061D01*
X149873998Y-88428096D01*
X149825000Y-88674423D01*
X148525000Y-88674423D01*
X148525000Y-87491164D01*
X148609841Y-87526306D01*
X148778889Y-87559932D01*
X148951249Y-87559932D01*
X149120297Y-87526306D01*
X149279537Y-87460347D01*
X149422849Y-87364589D01*
X149544726Y-87242712D01*
X149640484Y-87099400D01*
X149706443Y-86940160D01*
X149740069Y-86771112D01*
X149740069Y-86598752D01*
X149706443Y-86429704D01*
X149640484Y-86270464D01*
X149559003Y-86148520D01*
X149604923Y-86102600D01*
X149616354Y-86140282D01*
X149734747Y-86361779D01*
X149894077Y-86555923D01*
X150088221Y-86715253D01*
X150309718Y-86833646D01*
X150550056Y-86906552D01*
X150737364Y-86925000D01*
X151462636Y-86925000D01*
X151649944Y-86906552D01*
X151890282Y-86833646D01*
X152111779Y-86715253D01*
X152305923Y-86555923D01*
X152465253Y-86361779D01*
X152583646Y-86140282D01*
X152656552Y-85899944D01*
X152681169Y-85650000D01*
X153018831Y-85650000D01*
X153043448Y-85899944D01*
X153116354Y-86140282D01*
X153234747Y-86361779D01*
X153394077Y-86555923D01*
X153588221Y-86715253D01*
X153809718Y-86833646D01*
X154050056Y-86906552D01*
X154237364Y-86925000D01*
X154962636Y-86925000D01*
X155149944Y-86906552D01*
X155390282Y-86833646D01*
X155611779Y-86715253D01*
X155805923Y-86555923D01*
X155965253Y-86361779D01*
X156083646Y-86140282D01*
X156156552Y-85899944D01*
X156181169Y-85650000D01*
X156156552Y-85400056D01*
X156083646Y-85159718D01*
X155965253Y-84938221D01*
X155805923Y-84744077D01*
X155611779Y-84584747D01*
X155390282Y-84466354D01*
X155149944Y-84393448D01*
X154962636Y-84375000D01*
X154237364Y-84375000D01*
X154050056Y-84393448D01*
X153809718Y-84466354D01*
X153588221Y-84584747D01*
X153394077Y-84744077D01*
X153234747Y-84938221D01*
X153116354Y-85159718D01*
X153043448Y-85400056D01*
X153018831Y-85650000D01*
X152681169Y-85650000D01*
X152656552Y-85400056D01*
X152583646Y-85159718D01*
X152465253Y-84938221D01*
X152305923Y-84744077D01*
X152111779Y-84584747D01*
X151890282Y-84466354D01*
X151649944Y-84393448D01*
X151462636Y-84375000D01*
X151267280Y-84375000D01*
X151275002Y-84336180D01*
X151275002Y-84163820D01*
X151241376Y-83994772D01*
X151175417Y-83835532D01*
X151079659Y-83692220D01*
X150957782Y-83570343D01*
X150814470Y-83474585D01*
X150655230Y-83408626D01*
X150486182Y-83375000D01*
X150313822Y-83375000D01*
X150277298Y-83382265D01*
X150277298Y-83020000D01*
X150268127Y-82926884D01*
X150240966Y-82837346D01*
X150196859Y-82754827D01*
X150137501Y-82682499D01*
X150065173Y-82623141D01*
X150014784Y-82596208D01*
X150129890Y-82423939D01*
X150226002Y-82191904D01*
X150275000Y-81945577D01*
X150275000Y-81694423D01*
X150226002Y-81448096D01*
X150129890Y-81216061D01*
X149990357Y-81007235D01*
X149812765Y-80829643D01*
X149603939Y-80690110D01*
X149371904Y-80593998D01*
X149125577Y-80545000D01*
X148874423Y-80545000D01*
X148628096Y-80593998D01*
X148525000Y-80636702D01*
X148525000Y-78550000D01*
X151369073Y-78550000D01*
X151392725Y-78790142D01*
X151462772Y-79021055D01*
X151576522Y-79233866D01*
X151729603Y-79420397D01*
X151916134Y-79573478D01*
X152128945Y-79687228D01*
X152359858Y-79757275D01*
X152539822Y-79775000D01*
X153260178Y-79775000D01*
X153440142Y-79757275D01*
X153671055Y-79687228D01*
X153883866Y-79573478D01*
X154070397Y-79420397D01*
X154223478Y-79233866D01*
X154337228Y-79021055D01*
X154407275Y-78790142D01*
X154430927Y-78550000D01*
X154407275Y-78309858D01*
X154337228Y-78078945D01*
X154223478Y-77866134D01*
X154070397Y-77679603D01*
X153883866Y-77526522D01*
X153671055Y-77412772D01*
X153440142Y-77342725D01*
X153260178Y-77325000D01*
X152539822Y-77325000D01*
X152359858Y-77342725D01*
X152128945Y-77412772D01*
X151916134Y-77526522D01*
X151729603Y-77679603D01*
X151576522Y-77866134D01*
X151462772Y-78078945D01*
X151392725Y-78309858D01*
X151369073Y-78550000D01*
X148525000Y-78550000D01*
X148525000Y-77190283D01*
X148806489Y-77190283D01*
X148849918Y-77450654D01*
X148943308Y-77697550D01*
X149083070Y-77921482D01*
X149263834Y-78113845D01*
X149478653Y-78267247D01*
X149719271Y-78375792D01*
X149766565Y-78376662D01*
X149971000Y-78273679D01*
X149971000Y-76979000D01*
X150329000Y-76979000D01*
X150329000Y-78273679D01*
X150533435Y-78376662D01*
X150580729Y-78375792D01*
X150821347Y-78267247D01*
X151036166Y-78113845D01*
X151216930Y-77921482D01*
X151356692Y-77697550D01*
X151450082Y-77450654D01*
X151493511Y-77190283D01*
X151345344Y-76979000D01*
X150329000Y-76979000D01*
X149971000Y-76979000D01*
X148954656Y-76979000D01*
X148806489Y-77190283D01*
X148525000Y-77190283D01*
X148525000Y-76674423D01*
X154325000Y-76674423D01*
X154325000Y-76925577D01*
X154373998Y-77171904D01*
X154470110Y-77403939D01*
X154609643Y-77612765D01*
X154787235Y-77790357D01*
X154996061Y-77929890D01*
X155228096Y-78026002D01*
X155474423Y-78075000D01*
X155725577Y-78075000D01*
X155971904Y-78026002D01*
X156203939Y-77929890D01*
X156412765Y-77790357D01*
X156590357Y-77612765D01*
X156729890Y-77403939D01*
X156826002Y-77171904D01*
X156875000Y-76925577D01*
X156875000Y-76674423D01*
X156826002Y-76428096D01*
X156729890Y-76196061D01*
X156590357Y-75987235D01*
X156412765Y-75809643D01*
X156203939Y-75670110D01*
X155971904Y-75573998D01*
X155725577Y-75525000D01*
X155474423Y-75525000D01*
X155228096Y-75573998D01*
X154996061Y-75670110D01*
X154787235Y-75809643D01*
X154609643Y-75987235D01*
X154470110Y-76196061D01*
X154373998Y-76428096D01*
X154325000Y-76674423D01*
X148525000Y-76674423D01*
X148525000Y-76409717D01*
X148806489Y-76409717D01*
X148954656Y-76621000D01*
X149971000Y-76621000D01*
X149971000Y-75326321D01*
X150329000Y-75326321D01*
X150329000Y-76621000D01*
X151345344Y-76621000D01*
X151493511Y-76409717D01*
X151450082Y-76149346D01*
X151356692Y-75902450D01*
X151216930Y-75678518D01*
X151036166Y-75486155D01*
X150962339Y-75433435D01*
X151323338Y-75433435D01*
X151324208Y-75480729D01*
X151432753Y-75721347D01*
X151586155Y-75936166D01*
X151778518Y-76116930D01*
X152002450Y-76256692D01*
X152249346Y-76350082D01*
X152509717Y-76393511D01*
X152721000Y-76245344D01*
X152721000Y-75229000D01*
X153079000Y-75229000D01*
X153079000Y-76245344D01*
X153290283Y-76393511D01*
X153550654Y-76350082D01*
X153797550Y-76256692D01*
X154021482Y-76116930D01*
X154213845Y-75936166D01*
X154367247Y-75721347D01*
X154475792Y-75480729D01*
X154476662Y-75433435D01*
X154373679Y-75229000D01*
X153079000Y-75229000D01*
X152721000Y-75229000D01*
X151426321Y-75229000D01*
X151323338Y-75433435D01*
X150962339Y-75433435D01*
X150821347Y-75332753D01*
X150580729Y-75224208D01*
X150533435Y-75223338D01*
X150329000Y-75326321D01*
X149971000Y-75326321D01*
X149766565Y-75223338D01*
X149719271Y-75224208D01*
X149478653Y-75332753D01*
X149263834Y-75486155D01*
X149083070Y-75678518D01*
X148943308Y-75902450D01*
X148849918Y-76149346D01*
X148806489Y-76409717D01*
X148525000Y-76409717D01*
X148525000Y-74533333D01*
X148831250Y-74125000D01*
X151627481Y-74125000D01*
X151586155Y-74163834D01*
%TA.AperFunction,Conductor*%
D23*
G36*
X151586155Y-74163834D02*
G01*
X151432753Y-74378653D01*
X151324208Y-74619271D01*
X151323338Y-74666565D01*
X151426321Y-74871000D01*
X152721000Y-74871000D01*
X152721000Y-74851000D01*
X153079000Y-74851000D01*
X153079000Y-74871000D01*
X154373679Y-74871000D01*
X154476662Y-74666565D01*
X154475792Y-74619271D01*
X154367247Y-74378653D01*
X154213845Y-74163834D01*
X154172519Y-74125000D01*
X158968751Y-74125000D01*
X159188743Y-74418324D01*
X159275000Y-74547709D01*
X159275000Y-75066816D01*
X159255228Y-75058626D01*
X159086180Y-75025000D01*
X158913820Y-75025000D01*
X158744772Y-75058626D01*
X158585532Y-75124585D01*
X158442220Y-75220343D01*
X158320343Y-75342220D01*
X158224585Y-75485532D01*
X158158626Y-75644772D01*
X158125000Y-75813820D01*
X158125000Y-75986180D01*
X158158626Y-76155228D01*
X158224585Y-76314468D01*
X158320343Y-76457780D01*
X158442220Y-76579657D01*
X158585532Y-76675415D01*
X158650011Y-76702123D01*
X158650010Y-77574868D01*
X158634054Y-77627469D01*
X158625011Y-77719286D01*
X158625010Y-84484917D01*
X158590282Y-84466354D01*
X158349944Y-84393448D01*
X158162636Y-84375000D01*
X157437364Y-84375000D01*
X157250056Y-84393448D01*
X157009718Y-84466354D01*
X156788221Y-84584747D01*
X156594077Y-84744077D01*
X156434747Y-84938221D01*
X156316354Y-85159718D01*
X156243448Y-85400056D01*
X156218831Y-85650000D01*
X156243448Y-85899944D01*
X156316354Y-86140282D01*
X156434747Y-86361779D01*
X156594077Y-86555923D01*
X156788221Y-86715253D01*
X157009718Y-86833646D01*
X157250056Y-86906552D01*
X157437364Y-86925000D01*
X158162636Y-86925000D01*
X158349944Y-86906552D01*
X158575002Y-86838281D01*
X158575001Y-89238693D01*
X157988696Y-89824999D01*
X157860920Y-89824999D01*
X157912765Y-89790357D01*
X158090357Y-89612765D01*
X158229890Y-89403939D01*
X158326002Y-89171904D01*
X158375000Y-88925577D01*
X158375000Y-88674423D01*
X158326002Y-88428096D01*
X158229890Y-88196061D01*
X158090357Y-87987235D01*
X157912765Y-87809643D01*
X157703939Y-87670110D01*
X157471904Y-87573998D01*
X157225577Y-87525000D01*
X156974423Y-87525000D01*
X156728096Y-87573998D01*
X156496061Y-87670110D01*
X156287235Y-87809643D01*
X156109643Y-87987235D01*
X155970110Y-88196061D01*
X155873998Y-88428096D01*
X155825000Y-88674423D01*
X155825000Y-88925577D01*
X155873998Y-89171904D01*
X155970110Y-89403939D01*
X156109643Y-89612765D01*
X156287235Y-89790357D01*
X156483662Y-89921606D01*
X156441264Y-89944268D01*
X156358526Y-90012169D01*
X156358524Y-90012171D01*
X156330869Y-90034867D01*
X156308173Y-90062522D01*
X155468524Y-90902172D01*
X155440868Y-90924869D01*
X155418172Y-90952524D01*
X155418170Y-90952526D01*
X155350270Y-91035263D01*
X155350269Y-91035264D01*
X155282947Y-91161213D01*
X155241491Y-91297876D01*
X155231000Y-91404394D01*
X155231000Y-91404403D01*
X155227494Y-91440000D01*
X155231000Y-91475597D01*
X155231001Y-92582694D01*
X154972523Y-92841172D01*
X154944868Y-92863868D01*
X154922172Y-92891523D01*
X154922170Y-92891525D01*
X154854270Y-92974262D01*
X154854269Y-92974263D01*
X154786947Y-93100212D01*
X154745491Y-93236875D01*
X154740538Y-93287165D01*
X154615362Y-93370805D01*
X154430805Y-93555362D01*
X154285800Y-93772377D01*
X154244651Y-93871719D01*
X154191950Y-93739960D01*
X154038742Y-93504497D01*
X153842542Y-93303448D01*
X153610889Y-93144539D01*
X153352685Y-93033877D01*
X153319211Y-93023730D01*
X153099000Y-93125256D01*
X153099000Y-94221000D01*
X153119000Y-94221000D01*
X153119000Y-94579000D01*
X153099000Y-94579000D01*
X153099000Y-94599000D01*
X152741000Y-94599000D01*
X152741000Y-94579000D01*
X152721000Y-94579000D01*
X152721000Y-94221000D01*
X152741000Y-94221000D01*
X152741000Y-93125256D01*
X152520789Y-93023730D01*
X152487315Y-93033877D01*
X152229111Y-93144539D01*
X151997458Y-93303448D01*
X151801258Y-93504497D01*
X151648050Y-93739960D01*
X151595349Y-93871719D01*
X151554200Y-93772377D01*
X151409195Y-93555362D01*
X151224638Y-93370805D01*
X151007623Y-93225800D01*
X151005692Y-93225000D01*
X151462636Y-93225000D01*
X151649944Y-93206552D01*
X151890282Y-93133646D01*
X152111779Y-93015253D01*
X152305923Y-92855923D01*
X152465253Y-92661779D01*
X152583646Y-92440282D01*
X152656552Y-92199944D01*
X152681169Y-91950000D01*
X152656552Y-91700056D01*
X152583646Y-91459718D01*
X152465253Y-91238221D01*
X152305923Y-91044077D01*
X152111779Y-90884747D01*
X151890282Y-90766354D01*
X151649944Y-90693448D01*
X151462636Y-90675000D01*
X150737364Y-90675000D01*
X150550056Y-90693448D01*
X150309718Y-90766354D01*
X150088221Y-90884747D01*
X149894077Y-91044077D01*
X149734747Y-91238221D01*
X149616354Y-91459718D01*
X149543448Y-91700056D01*
X149518831Y-91950000D01*
X149543448Y-92199944D01*
X149616354Y-92440282D01*
X149734747Y-92661779D01*
X149894077Y-92855923D01*
X150088221Y-93015253D01*
X150213424Y-93082176D01*
X149993512Y-93125919D01*
X149752377Y-93225800D01*
X149535362Y-93370805D01*
X149350805Y-93555362D01*
X149205800Y-93772377D01*
X149105919Y-94013512D01*
X149055000Y-94269499D01*
X149055000Y-94530501D01*
X149105919Y-94786488D01*
X149205800Y-95027623D01*
X149350805Y-95244638D01*
X149535362Y-95429195D01*
X149641329Y-95500000D01*
X149007107Y-95500000D01*
X148525000Y-95017895D01*
X148525000Y-88674423D01*
X149825000Y-88674423D01*
X149825000Y-88925577D01*
X149873998Y-89171904D01*
X149970110Y-89403939D01*
X150109643Y-89612765D01*
X150287235Y-89790357D01*
X150496061Y-89929890D01*
X150728096Y-90026002D01*
X150974423Y-90075000D01*
X151225577Y-90075000D01*
X151471904Y-90026002D01*
X151703939Y-89929890D01*
X151912765Y-89790357D01*
X152090357Y-89612765D01*
X152229890Y-89403939D01*
X152326002Y-89171904D01*
X152375000Y-88925577D01*
X152375000Y-88674423D01*
X152326002Y-88428096D01*
X152229890Y-88196061D01*
X152090357Y-87987235D01*
X151912765Y-87809643D01*
X151703939Y-87670110D01*
X151471904Y-87573998D01*
X151225577Y-87525000D01*
X150974423Y-87525000D01*
X150728096Y-87573998D01*
X150496061Y-87670110D01*
X150287235Y-87809643D01*
X150109643Y-87987235D01*
X149970110Y-88196061D01*
X149873998Y-88428096D01*
X149825000Y-88674423D01*
X148525000Y-88674423D01*
X148525000Y-87491164D01*
X148609841Y-87526306D01*
X148778889Y-87559932D01*
X148951249Y-87559932D01*
X149120297Y-87526306D01*
X149279537Y-87460347D01*
X149422849Y-87364589D01*
X149544726Y-87242712D01*
X149640484Y-87099400D01*
X149706443Y-86940160D01*
X149740069Y-86771112D01*
X149740069Y-86598752D01*
X149706443Y-86429704D01*
X149640484Y-86270464D01*
X149559003Y-86148520D01*
X149604923Y-86102600D01*
X149616354Y-86140282D01*
X149734747Y-86361779D01*
X149894077Y-86555923D01*
X150088221Y-86715253D01*
X150309718Y-86833646D01*
X150550056Y-86906552D01*
X150737364Y-86925000D01*
X151462636Y-86925000D01*
X151649944Y-86906552D01*
X151890282Y-86833646D01*
X152111779Y-86715253D01*
X152305923Y-86555923D01*
X152465253Y-86361779D01*
X152583646Y-86140282D01*
X152656552Y-85899944D01*
X152681169Y-85650000D01*
X153018831Y-85650000D01*
X153043448Y-85899944D01*
X153116354Y-86140282D01*
X153234747Y-86361779D01*
X153394077Y-86555923D01*
X153588221Y-86715253D01*
X153809718Y-86833646D01*
X154050056Y-86906552D01*
X154237364Y-86925000D01*
X154962636Y-86925000D01*
X155149944Y-86906552D01*
X155390282Y-86833646D01*
X155611779Y-86715253D01*
X155805923Y-86555923D01*
X155965253Y-86361779D01*
X156083646Y-86140282D01*
X156156552Y-85899944D01*
X156181169Y-85650000D01*
X156156552Y-85400056D01*
X156083646Y-85159718D01*
X155965253Y-84938221D01*
X155805923Y-84744077D01*
X155611779Y-84584747D01*
X155390282Y-84466354D01*
X155149944Y-84393448D01*
X154962636Y-84375000D01*
X154237364Y-84375000D01*
X154050056Y-84393448D01*
X153809718Y-84466354D01*
X153588221Y-84584747D01*
X153394077Y-84744077D01*
X153234747Y-84938221D01*
X153116354Y-85159718D01*
X153043448Y-85400056D01*
X153018831Y-85650000D01*
X152681169Y-85650000D01*
X152656552Y-85400056D01*
X152583646Y-85159718D01*
X152465253Y-84938221D01*
X152305923Y-84744077D01*
X152111779Y-84584747D01*
X151890282Y-84466354D01*
X151649944Y-84393448D01*
X151462636Y-84375000D01*
X151267280Y-84375000D01*
X151275002Y-84336180D01*
X151275002Y-84163820D01*
X151241376Y-83994772D01*
X151175417Y-83835532D01*
X151079659Y-83692220D01*
X150957782Y-83570343D01*
X150814470Y-83474585D01*
X150655230Y-83408626D01*
X150486182Y-83375000D01*
X150313822Y-83375000D01*
X150277298Y-83382265D01*
X150277298Y-83020000D01*
X150268127Y-82926884D01*
X150240966Y-82837346D01*
X150196859Y-82754827D01*
X150137501Y-82682499D01*
X150065173Y-82623141D01*
X150014784Y-82596208D01*
X150129890Y-82423939D01*
X150226002Y-82191904D01*
X150275000Y-81945577D01*
X150275000Y-81694423D01*
X150226002Y-81448096D01*
X150129890Y-81216061D01*
X149990357Y-81007235D01*
X149812765Y-80829643D01*
X149603939Y-80690110D01*
X149371904Y-80593998D01*
X149125577Y-80545000D01*
X148874423Y-80545000D01*
X148628096Y-80593998D01*
X148525000Y-80636702D01*
X148525000Y-78550000D01*
X151369073Y-78550000D01*
X151392725Y-78790142D01*
X151462772Y-79021055D01*
X151576522Y-79233866D01*
X151729603Y-79420397D01*
X151916134Y-79573478D01*
X152128945Y-79687228D01*
X152359858Y-79757275D01*
X152539822Y-79775000D01*
X153260178Y-79775000D01*
X153440142Y-79757275D01*
X153671055Y-79687228D01*
X153883866Y-79573478D01*
X154070397Y-79420397D01*
X154223478Y-79233866D01*
X154337228Y-79021055D01*
X154407275Y-78790142D01*
X154430927Y-78550000D01*
X154407275Y-78309858D01*
X154337228Y-78078945D01*
X154223478Y-77866134D01*
X154070397Y-77679603D01*
X153883866Y-77526522D01*
X153671055Y-77412772D01*
X153440142Y-77342725D01*
X153260178Y-77325000D01*
X152539822Y-77325000D01*
X152359858Y-77342725D01*
X152128945Y-77412772D01*
X151916134Y-77526522D01*
X151729603Y-77679603D01*
X151576522Y-77866134D01*
X151462772Y-78078945D01*
X151392725Y-78309858D01*
X151369073Y-78550000D01*
X148525000Y-78550000D01*
X148525000Y-77190283D01*
X148806489Y-77190283D01*
X148849918Y-77450654D01*
X148943308Y-77697550D01*
X149083070Y-77921482D01*
X149263834Y-78113845D01*
X149478653Y-78267247D01*
X149719271Y-78375792D01*
X149766565Y-78376662D01*
X149971000Y-78273679D01*
X149971000Y-76979000D01*
X150329000Y-76979000D01*
X150329000Y-78273679D01*
X150533435Y-78376662D01*
X150580729Y-78375792D01*
X150821347Y-78267247D01*
X151036166Y-78113845D01*
X151216930Y-77921482D01*
X151356692Y-77697550D01*
X151450082Y-77450654D01*
X151493511Y-77190283D01*
X151345344Y-76979000D01*
X150329000Y-76979000D01*
X149971000Y-76979000D01*
X148954656Y-76979000D01*
X148806489Y-77190283D01*
X148525000Y-77190283D01*
X148525000Y-76674423D01*
X154325000Y-76674423D01*
X154325000Y-76925577D01*
X154373998Y-77171904D01*
X154470110Y-77403939D01*
X154609643Y-77612765D01*
X154787235Y-77790357D01*
X154996061Y-77929890D01*
X155228096Y-78026002D01*
X155474423Y-78075000D01*
X155725577Y-78075000D01*
X155971904Y-78026002D01*
X156203939Y-77929890D01*
X156412765Y-77790357D01*
X156590357Y-77612765D01*
X156729890Y-77403939D01*
X156826002Y-77171904D01*
X156875000Y-76925577D01*
X156875000Y-76674423D01*
X156826002Y-76428096D01*
X156729890Y-76196061D01*
X156590357Y-75987235D01*
X156412765Y-75809643D01*
X156203939Y-75670110D01*
X155971904Y-75573998D01*
X155725577Y-75525000D01*
X155474423Y-75525000D01*
X155228096Y-75573998D01*
X154996061Y-75670110D01*
X154787235Y-75809643D01*
X154609643Y-75987235D01*
X154470110Y-76196061D01*
X154373998Y-76428096D01*
X154325000Y-76674423D01*
X148525000Y-76674423D01*
X148525000Y-76409717D01*
X148806489Y-76409717D01*
X148954656Y-76621000D01*
X149971000Y-76621000D01*
X149971000Y-75326321D01*
X150329000Y-75326321D01*
X150329000Y-76621000D01*
X151345344Y-76621000D01*
X151493511Y-76409717D01*
X151450082Y-76149346D01*
X151356692Y-75902450D01*
X151216930Y-75678518D01*
X151036166Y-75486155D01*
X150962339Y-75433435D01*
X151323338Y-75433435D01*
X151324208Y-75480729D01*
X151432753Y-75721347D01*
X151586155Y-75936166D01*
X151778518Y-76116930D01*
X152002450Y-76256692D01*
X152249346Y-76350082D01*
X152509717Y-76393511D01*
X152721000Y-76245344D01*
X152721000Y-75229000D01*
X153079000Y-75229000D01*
X153079000Y-76245344D01*
X153290283Y-76393511D01*
X153550654Y-76350082D01*
X153797550Y-76256692D01*
X154021482Y-76116930D01*
X154213845Y-75936166D01*
X154367247Y-75721347D01*
X154475792Y-75480729D01*
X154476662Y-75433435D01*
X154373679Y-75229000D01*
X153079000Y-75229000D01*
X152721000Y-75229000D01*
X151426321Y-75229000D01*
X151323338Y-75433435D01*
X150962339Y-75433435D01*
X150821347Y-75332753D01*
X150580729Y-75224208D01*
X150533435Y-75223338D01*
X150329000Y-75326321D01*
X149971000Y-75326321D01*
X149766565Y-75223338D01*
X149719271Y-75224208D01*
X149478653Y-75332753D01*
X149263834Y-75486155D01*
X149083070Y-75678518D01*
X148943308Y-75902450D01*
X148849918Y-76149346D01*
X148806489Y-76409717D01*
X148525000Y-76409717D01*
X148525000Y-74533333D01*
X148831250Y-74125000D01*
X151627481Y-74125000D01*
X151586155Y-74163834D01*
G37*
%TD.AperFunction*%
%TD*%
M02*
