%TF.GenerationSoftware,KiCad,Pcbnew,5.1.10*%
%TF.CreationDate,2021-05-14T23:01:05+02:00*%
%TF.ProjectId,kenwood-trrs,6b656e77-6f6f-4642-9d74-7272732e6b69,rev?*%
%TF.SameCoordinates,Original*%
%TF.FileFunction,Copper,L1,Top*%
%TF.FilePolarity,Positive*%
%FSLAX46Y46*%
G04 Gerber Fmt 4.6, Leading zero omitted, Abs format (unit mm)*
G04 Created by KiCad (PCBNEW 5.1.10) date 2021-05-14 23:01:05*
%MOMM*%
%LPD*%
G01*
G04 APERTURE LIST*
%TA.AperFunction,SMDPad,CuDef*%
%ADD10R,0.800000X1.900000*%
%TD*%
%TA.AperFunction,ComponentPad*%
%ADD11C,1.600000*%
%TD*%
%TA.AperFunction,ComponentPad*%
%ADD12R,1.600000X1.600000*%
%TD*%
%TA.AperFunction,ComponentPad*%
%ADD13O,2.200000X1.600000*%
%TD*%
%TA.AperFunction,ComponentPad*%
%ADD14O,1.700000X1.700000*%
%TD*%
%TA.AperFunction,ComponentPad*%
%ADD15R,1.700000X1.700000*%
%TD*%
%TA.AperFunction,ComponentPad*%
%ADD16O,2.100000X1.500000*%
%TD*%
%TA.AperFunction,ComponentPad*%
%ADD17O,1.500000X2.100000*%
%TD*%
%TA.AperFunction,ViaPad*%
%ADD18C,0.800000*%
%TD*%
%TA.AperFunction,Conductor*%
%ADD19C,0.500000*%
%TD*%
%TA.AperFunction,Conductor*%
%ADD20C,0.250000*%
%TD*%
%TA.AperFunction,Conductor*%
%ADD21C,0.300000*%
%TD*%
%TA.AperFunction,Conductor*%
%ADD22C,0.200000*%
%TD*%
G04 APERTURE END LIST*
D10*
%TO.P,Q1,3*%
%TO.N,Net-(C1-Pad2)*%
X152300000Y-80650000D03*
%TO.P,Q1,2*%
%TO.N,GND*%
X153250000Y-83650000D03*
%TO.P,Q1,1*%
%TO.N,Net-(C2-Pad1)*%
X151350000Y-83650000D03*
%TD*%
%TO.P,R5,2*%
%TO.N,Net-(C2-Pad1)*%
%TA.AperFunction,SMDPad,CuDef*%
G36*
G01*
X158050001Y-82308000D02*
X157149999Y-82308000D01*
G75*
G02*
X156900000Y-82058001I0J249999D01*
G01*
X156900000Y-81357999D01*
G75*
G02*
X157149999Y-81108000I249999J0D01*
G01*
X158050001Y-81108000D01*
G75*
G02*
X158300000Y-81357999I0J-249999D01*
G01*
X158300000Y-82058001D01*
G75*
G02*
X158050001Y-82308000I-249999J0D01*
G01*
G37*
%TD.AperFunction*%
%TO.P,R5,1*%
%TO.N,/PTT_Mic-*%
%TA.AperFunction,SMDPad,CuDef*%
G36*
G01*
X158050001Y-84308000D02*
X157149999Y-84308000D01*
G75*
G02*
X156900000Y-84058001I0J249999D01*
G01*
X156900000Y-83357999D01*
G75*
G02*
X157149999Y-83108000I249999J0D01*
G01*
X158050001Y-83108000D01*
G75*
G02*
X158300000Y-83357999I0J-249999D01*
G01*
X158300000Y-84058001D01*
G75*
G02*
X158050001Y-84308000I-249999J0D01*
G01*
G37*
%TD.AperFunction*%
%TD*%
%TO.P,R4,2*%
%TO.N,Net-(C2-Pad1)*%
%TA.AperFunction,SMDPad,CuDef*%
G36*
G01*
X155750001Y-82308000D02*
X154849999Y-82308000D01*
G75*
G02*
X154600000Y-82058001I0J249999D01*
G01*
X154600000Y-81357999D01*
G75*
G02*
X154849999Y-81108000I249999J0D01*
G01*
X155750001Y-81108000D01*
G75*
G02*
X156000000Y-81357999I0J-249999D01*
G01*
X156000000Y-82058001D01*
G75*
G02*
X155750001Y-82308000I-249999J0D01*
G01*
G37*
%TD.AperFunction*%
%TO.P,R4,1*%
%TO.N,/Mic+*%
%TA.AperFunction,SMDPad,CuDef*%
G36*
G01*
X155750001Y-84308000D02*
X154849999Y-84308000D01*
G75*
G02*
X154600000Y-84058001I0J249999D01*
G01*
X154600000Y-83357999D01*
G75*
G02*
X154849999Y-83108000I249999J0D01*
G01*
X155750001Y-83108000D01*
G75*
G02*
X156000000Y-83357999I0J-249999D01*
G01*
X156000000Y-84058001D01*
G75*
G02*
X155750001Y-84308000I-249999J0D01*
G01*
G37*
%TD.AperFunction*%
%TD*%
%TO.P,R1,2*%
%TO.N,GND*%
%TA.AperFunction,SMDPad,CuDef*%
G36*
G01*
X149450000Y-79549999D02*
X149450000Y-80450001D01*
G75*
G02*
X149200001Y-80700000I-249999J0D01*
G01*
X148499999Y-80700000D01*
G75*
G02*
X148250000Y-80450001I0J249999D01*
G01*
X148250000Y-79549999D01*
G75*
G02*
X148499999Y-79300000I249999J0D01*
G01*
X149200001Y-79300000D01*
G75*
G02*
X149450000Y-79549999I0J-249999D01*
G01*
G37*
%TD.AperFunction*%
%TO.P,R1,1*%
%TO.N,Net-(C1-Pad2)*%
%TA.AperFunction,SMDPad,CuDef*%
G36*
G01*
X151450000Y-79549999D02*
X151450000Y-80450001D01*
G75*
G02*
X151200001Y-80700000I-249999J0D01*
G01*
X150499999Y-80700000D01*
G75*
G02*
X150250000Y-80450001I0J249999D01*
G01*
X150250000Y-79549999D01*
G75*
G02*
X150499999Y-79300000I249999J0D01*
G01*
X151200001Y-79300000D01*
G75*
G02*
X151450000Y-79549999I0J-249999D01*
G01*
G37*
%TD.AperFunction*%
%TD*%
%TO.P,C2,2*%
%TO.N,GND*%
%TA.AperFunction,SMDPad,CuDef*%
G36*
G01*
X148623000Y-89670000D02*
X149573000Y-89670000D01*
G75*
G02*
X149823000Y-89920000I0J-250000D01*
G01*
X149823000Y-90420000D01*
G75*
G02*
X149573000Y-90670000I-250000J0D01*
G01*
X148623000Y-90670000D01*
G75*
G02*
X148373000Y-90420000I0J250000D01*
G01*
X148373000Y-89920000D01*
G75*
G02*
X148623000Y-89670000I250000J0D01*
G01*
G37*
%TD.AperFunction*%
%TO.P,C2,1*%
%TO.N,Net-(C2-Pad1)*%
%TA.AperFunction,SMDPad,CuDef*%
G36*
G01*
X148623000Y-87770000D02*
X149573000Y-87770000D01*
G75*
G02*
X149823000Y-88020000I0J-250000D01*
G01*
X149823000Y-88520000D01*
G75*
G02*
X149573000Y-88770000I-250000J0D01*
G01*
X148623000Y-88770000D01*
G75*
G02*
X148373000Y-88520000I0J250000D01*
G01*
X148373000Y-88020000D01*
G75*
G02*
X148623000Y-87770000I250000J0D01*
G01*
G37*
%TD.AperFunction*%
%TD*%
D11*
%TO.P,C1,2*%
%TO.N,Net-(C1-Pad2)*%
X149000000Y-81820000D03*
D12*
%TO.P,C1,1*%
%TO.N,/Mic+*%
X149000000Y-83820000D03*
%TD*%
D13*
%TO.P,J3,S*%
%TO.N,/PTT_Mic-*%
X157800000Y-85650000D03*
X157800000Y-91950000D03*
%TO.P,J3,R*%
%TO.N,/Mic+*%
X154600000Y-85650000D03*
%TO.P,J3,T*%
%TO.N,Net-(J3-PadT)*%
X151100000Y-85650000D03*
X151100000Y-91950000D03*
%TD*%
D14*
%TO.P,J1,S*%
%TO.N,/Mic+*%
X150380000Y-94400000D03*
%TO.P,J1,R2*%
%TO.N,GND*%
X152920000Y-94400000D03*
%TO.P,J1,R1*%
%TO.N,Net-(J1-PadR1)*%
X155460000Y-94400000D03*
D15*
%TO.P,J1,T*%
%TO.N,Net-(J1-PadT)*%
X158000000Y-94400000D03*
%TD*%
D16*
%TO.P,J2,R*%
%TO.N,GND*%
X152900000Y-75050000D03*
D17*
%TO.P,J2,S*%
X150150000Y-76800000D03*
D16*
%TO.P,J2,T*%
%TO.N,Net-(J2-PadT)*%
X152900000Y-78550000D03*
%TD*%
%TO.P,R3,2*%
%TO.N,Net-(J2-PadT)*%
%TA.AperFunction,SMDPad,CuDef*%
G36*
G01*
X156575000Y-78349999D02*
X156575000Y-79250001D01*
G75*
G02*
X156325001Y-79500000I-249999J0D01*
G01*
X155674999Y-79500000D01*
G75*
G02*
X155425000Y-79250001I0J249999D01*
G01*
X155425000Y-78349999D01*
G75*
G02*
X155674999Y-78100000I249999J0D01*
G01*
X156325001Y-78100000D01*
G75*
G02*
X156575000Y-78349999I0J-249999D01*
G01*
G37*
%TD.AperFunction*%
%TO.P,R3,1*%
%TO.N,Net-(J1-PadT)*%
%TA.AperFunction,SMDPad,CuDef*%
G36*
G01*
X158625000Y-78349999D02*
X158625000Y-79250001D01*
G75*
G02*
X158375001Y-79500000I-249999J0D01*
G01*
X157724999Y-79500000D01*
G75*
G02*
X157475000Y-79250001I0J249999D01*
G01*
X157475000Y-78349999D01*
G75*
G02*
X157724999Y-78100000I249999J0D01*
G01*
X158375001Y-78100000D01*
G75*
G02*
X158625000Y-78349999I0J-249999D01*
G01*
G37*
%TD.AperFunction*%
%TD*%
%TO.P,R2,2*%
%TO.N,Net-(J2-PadT)*%
%TA.AperFunction,SMDPad,CuDef*%
G36*
G01*
X156575000Y-74349999D02*
X156575000Y-75250001D01*
G75*
G02*
X156325001Y-75500000I-249999J0D01*
G01*
X155674999Y-75500000D01*
G75*
G02*
X155425000Y-75250001I0J249999D01*
G01*
X155425000Y-74349999D01*
G75*
G02*
X155674999Y-74100000I249999J0D01*
G01*
X156325001Y-74100000D01*
G75*
G02*
X156575000Y-74349999I0J-249999D01*
G01*
G37*
%TD.AperFunction*%
%TO.P,R2,1*%
%TO.N,Net-(J1-PadR1)*%
%TA.AperFunction,SMDPad,CuDef*%
G36*
G01*
X158625000Y-74349999D02*
X158625000Y-75250001D01*
G75*
G02*
X158375001Y-75500000I-249999J0D01*
G01*
X157724999Y-75500000D01*
G75*
G02*
X157475000Y-75250001I0J249999D01*
G01*
X157475000Y-74349999D01*
G75*
G02*
X157724999Y-74100000I249999J0D01*
G01*
X158375001Y-74100000D01*
G75*
G02*
X158625000Y-74349999I0J-249999D01*
G01*
G37*
%TD.AperFunction*%
%TD*%
D18*
%TO.N,GND*%
X149098000Y-91186000D03*
X152900000Y-87099998D03*
X152350000Y-83650000D03*
X149000000Y-78700000D03*
%TO.N,Net-(J1-PadR1)*%
X159000000Y-75900000D03*
%TO.N,Net-(C2-Pad1)*%
X148865069Y-86684932D03*
X150400002Y-84250000D03*
%TD*%
D19*
%TO.N,/Mic+*%
X150380000Y-94400000D02*
X150722002Y-94400000D01*
X150717781Y-94400000D02*
X150380000Y-94400000D01*
X154600000Y-90517781D02*
X150717781Y-94400000D01*
X154600000Y-87000000D02*
X154600000Y-90517781D01*
X154600000Y-85650000D02*
X154600000Y-87000000D01*
X155300000Y-84950000D02*
X154600000Y-85650000D01*
X155300000Y-83708000D02*
X155300000Y-84950000D01*
X153649998Y-87950002D02*
X154600000Y-87000000D01*
X152491998Y-87950002D02*
X153649998Y-87950002D01*
X152091995Y-87549999D02*
X152491998Y-87950002D01*
X150932218Y-87549999D02*
X152091995Y-87549999D01*
X149000000Y-85617781D02*
X150932218Y-87549999D01*
X149000000Y-83820000D02*
X149000000Y-85617781D01*
%TO.N,/PTT_Mic-*%
X158350001Y-91399999D02*
X157800000Y-91950000D01*
X158350001Y-86200001D02*
X158350001Y-91399999D01*
X157800000Y-85650000D02*
X158350001Y-86200001D01*
X157600000Y-85450000D02*
X157800000Y-85650000D01*
X157600000Y-83708000D02*
X157600000Y-85450000D01*
%TO.N,GND*%
X149098000Y-90170000D02*
X149098000Y-91186000D01*
X152900000Y-84150000D02*
X152900000Y-87099998D01*
X153150000Y-83900000D02*
X152900000Y-84150000D01*
X153200000Y-83650000D02*
X152300002Y-83650000D01*
X148900000Y-78800000D02*
X149000000Y-78700000D01*
X148900000Y-80000000D02*
X148900000Y-78800000D01*
%TO.N,Net-(J2-PadT)*%
X155750000Y-78550000D02*
X156000000Y-78800000D01*
X153100000Y-78550000D02*
X155750000Y-78550000D01*
X156350001Y-75150001D02*
X156000000Y-74800000D01*
X156350001Y-75699999D02*
X156350001Y-75150001D01*
X156850001Y-76199999D02*
X156350001Y-75699999D01*
X156850001Y-77949999D02*
X156850001Y-76199999D01*
X156000000Y-78800000D02*
X156850001Y-77949999D01*
D20*
%TO.N,Net-(J1-PadR1)*%
X159000000Y-75750000D02*
X158050000Y-74800000D01*
X159000000Y-75900000D02*
X159000000Y-75750000D01*
D19*
%TO.N,Net-(J1-PadT)*%
X159200001Y-79950001D02*
X158050000Y-78800000D01*
X158000000Y-94400000D02*
X159200001Y-93199999D01*
D21*
X159250010Y-80000010D02*
X159200001Y-79950001D01*
X159250010Y-92426349D02*
X159250010Y-80000010D01*
X159200001Y-92476358D02*
X159250010Y-92426349D01*
X159200001Y-93199999D02*
X159200001Y-92476358D01*
D19*
%TO.N,Net-(C1-Pad2)*%
X149080000Y-81820000D02*
X150900000Y-80000000D01*
X149000000Y-81820000D02*
X149080000Y-81820000D01*
X151600000Y-80000000D02*
X152250000Y-80650000D01*
X150900000Y-80000000D02*
X151600000Y-80000000D01*
%TO.N,Net-(C2-Pad1)*%
X157600000Y-81708000D02*
X155300000Y-81708000D01*
D22*
X149098000Y-86917863D02*
X148865069Y-86684932D01*
X149098000Y-88270000D02*
X149098000Y-86917863D01*
X150700000Y-84250000D02*
X151300000Y-83650000D01*
X150400002Y-84250000D02*
X150700000Y-84250000D01*
D20*
X153792000Y-81708000D02*
X155300000Y-81708000D01*
X153350000Y-82150000D02*
X153792000Y-81708000D01*
X151600000Y-82150000D02*
X153350000Y-82150000D01*
X151300000Y-82450000D02*
X151600000Y-82150000D01*
X151300000Y-83650000D02*
X151300000Y-82450000D01*
%TD*%
M02*
