M48
; DRILL file {KiCad 5.1.8} date Sat Dec 26 21:24:48 2020
; FORMAT={-:-/ absolute / metric / decimal}
; #@! TF.CreationDate,2020-12-26T21:24:48+01:00
; #@! TF.GenerationSoftware,Kicad,Pcbnew,5.1.8
FMAT,2
METRIC
T1C0.400
T2C0.800
T3C1.000
T4C1.100
T5C1.600
%
G90
G05
T1
X154.0Y-83.25
X158.2Y-74.8
T3
X150.38Y-94.4
X152.92Y-94.4
X155.46Y-94.4
X158.0Y-94.4
T5
X155.6Y-76.8
X151.1Y-88.8
X157.1Y-88.8
T2
G00X150.2Y-76.2
M15
G01X150.2Y-77.4
M16
G05
G00X153.9Y-75.05
M15
G01X152.7Y-75.05
M16
G05
G00X153.9Y-78.55
M15
G01X152.7Y-78.55
M16
G05
T4
G00X151.4Y-85.65
M15
G01X150.8Y-85.65
M16
G05
G00X151.4Y-91.95
M15
G01X150.8Y-91.95
M16
G05
G00X154.9Y-85.65
M15
G01X154.3Y-85.65
M16
G05
G00X158.1Y-85.65
M15
G01X157.5Y-85.65
M16
G05
G00X158.1Y-91.95
M15
G01X157.5Y-91.95
M16
G05
T0
M30
