%TF.GenerationSoftware,KiCad,Pcbnew,5.1.8*%
%TF.CreationDate,2020-12-26T21:24:44+01:00*%
%TF.ProjectId,kenwood-trrs,6b656e77-6f6f-4642-9d74-7272732e6b69,rev?*%
%TF.SameCoordinates,Original*%
%TF.FileFunction,Paste,Top*%
%TF.FilePolarity,Positive*%
%FSLAX46Y46*%
G04 Gerber Fmt 4.6, Leading zero omitted, Abs format (unit mm)*
G04 Created by KiCad (PCBNEW 5.1.8) date 2020-12-26 21:24:44*
%MOMM*%
%LPD*%
G01*
G04 APERTURE LIST*
%ADD10R,0.800000X0.900000*%
G04 APERTURE END LIST*
D10*
%TO.C,Q2*%
X154200000Y-90000000D03*
X153250000Y-88000000D03*
X155150000Y-88000000D03*
%TD*%
%TO.C,Q1*%
X157200000Y-81200000D03*
X158150000Y-83200000D03*
X156250000Y-83200000D03*
%TD*%
%TO.C,R5*%
G36*
G01*
X153549999Y-82675000D02*
X154450001Y-82675000D01*
G75*
G02*
X154700000Y-82924999I0J-249999D01*
G01*
X154700000Y-83575001D01*
G75*
G02*
X154450001Y-83825000I-249999J0D01*
G01*
X153549999Y-83825000D01*
G75*
G02*
X153300000Y-83575001I0J249999D01*
G01*
X153300000Y-82924999D01*
G75*
G02*
X153549999Y-82675000I249999J0D01*
G01*
G37*
G36*
G01*
X153549999Y-80625000D02*
X154450001Y-80625000D01*
G75*
G02*
X154700000Y-80874999I0J-249999D01*
G01*
X154700000Y-81525001D01*
G75*
G02*
X154450001Y-81775000I-249999J0D01*
G01*
X153549999Y-81775000D01*
G75*
G02*
X153300000Y-81525001I0J249999D01*
G01*
X153300000Y-80874999D01*
G75*
G02*
X153549999Y-80625000I249999J0D01*
G01*
G37*
%TD*%
%TO.C,R4*%
G36*
G01*
X156575000Y-78349999D02*
X156575000Y-79250001D01*
G75*
G02*
X156325001Y-79500000I-249999J0D01*
G01*
X155674999Y-79500000D01*
G75*
G02*
X155425000Y-79250001I0J249999D01*
G01*
X155425000Y-78349999D01*
G75*
G02*
X155674999Y-78100000I249999J0D01*
G01*
X156325001Y-78100000D01*
G75*
G02*
X156575000Y-78349999I0J-249999D01*
G01*
G37*
G36*
G01*
X158625000Y-78349999D02*
X158625000Y-79250001D01*
G75*
G02*
X158375001Y-79500000I-249999J0D01*
G01*
X157724999Y-79500000D01*
G75*
G02*
X157475000Y-79250001I0J249999D01*
G01*
X157475000Y-78349999D01*
G75*
G02*
X157724999Y-78100000I249999J0D01*
G01*
X158375001Y-78100000D01*
G75*
G02*
X158625000Y-78349999I0J-249999D01*
G01*
G37*
%TD*%
%TO.C,R3*%
G36*
G01*
X156575000Y-74349999D02*
X156575000Y-75250001D01*
G75*
G02*
X156325001Y-75500000I-249999J0D01*
G01*
X155674999Y-75500000D01*
G75*
G02*
X155425000Y-75250001I0J249999D01*
G01*
X155425000Y-74349999D01*
G75*
G02*
X155674999Y-74100000I249999J0D01*
G01*
X156325001Y-74100000D01*
G75*
G02*
X156575000Y-74349999I0J-249999D01*
G01*
G37*
G36*
G01*
X158625000Y-74349999D02*
X158625000Y-75250001D01*
G75*
G02*
X158375001Y-75500000I-249999J0D01*
G01*
X157724999Y-75500000D01*
G75*
G02*
X157475000Y-75250001I0J249999D01*
G01*
X157475000Y-74349999D01*
G75*
G02*
X157724999Y-74100000I249999J0D01*
G01*
X158375001Y-74100000D01*
G75*
G02*
X158625000Y-74349999I0J-249999D01*
G01*
G37*
%TD*%
%TO.C,R2*%
G36*
G01*
X151475000Y-81650001D02*
X151475000Y-80749999D01*
G75*
G02*
X151724999Y-80500000I249999J0D01*
G01*
X152375001Y-80500000D01*
G75*
G02*
X152625000Y-80749999I0J-249999D01*
G01*
X152625000Y-81650001D01*
G75*
G02*
X152375001Y-81900000I-249999J0D01*
G01*
X151724999Y-81900000D01*
G75*
G02*
X151475000Y-81650001I0J249999D01*
G01*
G37*
G36*
G01*
X149425000Y-81650001D02*
X149425000Y-80749999D01*
G75*
G02*
X149674999Y-80500000I249999J0D01*
G01*
X150325001Y-80500000D01*
G75*
G02*
X150575000Y-80749999I0J-249999D01*
G01*
X150575000Y-81650001D01*
G75*
G02*
X150325001Y-81900000I-249999J0D01*
G01*
X149674999Y-81900000D01*
G75*
G02*
X149425000Y-81650001I0J249999D01*
G01*
G37*
%TD*%
%TO.C,R1*%
G36*
G01*
X154850000Y-92450001D02*
X154850000Y-91549999D01*
G75*
G02*
X155099999Y-91300000I249999J0D01*
G01*
X155750001Y-91300000D01*
G75*
G02*
X156000000Y-91549999I0J-249999D01*
G01*
X156000000Y-92450001D01*
G75*
G02*
X155750001Y-92700000I-249999J0D01*
G01*
X155099999Y-92700000D01*
G75*
G02*
X154850000Y-92450001I0J249999D01*
G01*
G37*
G36*
G01*
X152800000Y-92450001D02*
X152800000Y-91549999D01*
G75*
G02*
X153049999Y-91300000I249999J0D01*
G01*
X153700001Y-91300000D01*
G75*
G02*
X153950000Y-91549999I0J-249999D01*
G01*
X153950000Y-92450001D01*
G75*
G02*
X153700001Y-92700000I-249999J0D01*
G01*
X153049999Y-92700000D01*
G75*
G02*
X152800000Y-92450001I0J249999D01*
G01*
G37*
%TD*%
%TO.C,C1*%
G36*
G01*
X151450000Y-83450001D02*
X151450000Y-82549999D01*
G75*
G02*
X151699999Y-82300000I249999J0D01*
G01*
X152350001Y-82300000D01*
G75*
G02*
X152600000Y-82549999I0J-249999D01*
G01*
X152600000Y-83450001D01*
G75*
G02*
X152350001Y-83700000I-249999J0D01*
G01*
X151699999Y-83700000D01*
G75*
G02*
X151450000Y-83450001I0J249999D01*
G01*
G37*
G36*
G01*
X149400000Y-83450001D02*
X149400000Y-82549999D01*
G75*
G02*
X149649999Y-82300000I249999J0D01*
G01*
X150300001Y-82300000D01*
G75*
G02*
X150550000Y-82549999I0J-249999D01*
G01*
X150550000Y-83450001D01*
G75*
G02*
X150300001Y-83700000I-249999J0D01*
G01*
X149649999Y-83700000D01*
G75*
G02*
X149400000Y-83450001I0J249999D01*
G01*
G37*
%TD*%
M02*
