%TF.GenerationSoftware,KiCad,Pcbnew,5.1.8*%
%TF.CreationDate,2020-12-26T21:24:44+01:00*%
%TF.ProjectId,kenwood-trrs,6b656e77-6f6f-4642-9d74-7272732e6b69,rev?*%
%TF.SameCoordinates,Original*%
%TF.FileFunction,Profile,NP*%
%FSLAX46Y46*%
G04 Gerber Fmt 4.6, Leading zero omitted, Abs format (unit mm)*
G04 Created by KiCad (PCBNEW 5.1.8) date 2020-12-26 21:24:44*
%MOMM*%
%LPD*%
G01*
G04 APERTURE LIST*
%TA.AperFunction,Profile*%
%ADD10C,0.050000*%
%TD*%
%TA.AperFunction,Profile*%
%ADD11C,0.100000*%
%TD*%
G04 APERTURE END LIST*
D10*
X148000000Y-79600000D02*
X148000000Y-74400000D01*
X148600000Y-80400000D02*
X148000000Y-79600000D01*
X148600000Y-82800000D02*
X148600000Y-80400000D01*
X148000000Y-83600000D02*
X148600000Y-82800000D01*
X148000000Y-95200000D02*
X148800000Y-96000000D01*
X159000000Y-96000000D02*
X159800000Y-95200000D01*
X159800000Y-74400000D02*
X159200000Y-73600000D01*
X148000000Y-74400000D02*
X148600000Y-73600000D01*
X155000000Y-98600000D02*
G75*
G03*
X155000000Y-98600000I-1000000J0D01*
G01*
X151100000Y-100000000D02*
X151500000Y-99800000D01*
X156700000Y-100000000D02*
X156300000Y-99800000D01*
X148800000Y-96000000D02*
X150500000Y-96000000D01*
X157300000Y-96000000D02*
X156300000Y-97400000D01*
X156700000Y-100000000D02*
X157100000Y-100000000D01*
X157100000Y-101400000D02*
X154100000Y-101400000D01*
X157100000Y-100000000D02*
X157100000Y-101400000D01*
X156300000Y-97400000D02*
X156300000Y-99800000D01*
X150700000Y-101400000D02*
X154100000Y-101400000D01*
X150700000Y-100000000D02*
X150700000Y-101400000D01*
X151100000Y-100000000D02*
X150700000Y-100000000D01*
X151500000Y-97400000D02*
X151500000Y-99800000D01*
X150500000Y-96000000D02*
X151500000Y-97400000D01*
D11*
X159800000Y-74400000D02*
X159800000Y-95200000D01*
X148600000Y-73600000D02*
X159200000Y-73600000D01*
X148000000Y-95200000D02*
X148000000Y-83600000D01*
X159000000Y-96000000D02*
X157300000Y-96000000D01*
M02*
